# xmcd
#
# Track frame offsets:
#	150
#	16280
#	31417
#	47917
#	66260
#	78912
#	93800
#	108147
#	124177
#	139052
#	151762
#	165960
#	180092
#	195807
#
# Disc length: 2806 seconds
#
# Revision: 1
# Processed by: cddbd v1.5.2PL0 Copyright (c) Steve Scherf et al.
# Submitted via: audiograbber 1.83.01
#
DISCID=980af40e
DTITLE=VICTOR and LEO - O MELHOR
DYEAR=1900
DGENRE=
TTITLE0=AMIGO APAIXONADO
TTITLE1=BORBOLETAS
TTITLE2=DEUS E EU NO SERTÃO
TTITLE3=FADA
TTITLE4=FOTOS
TTITLE5=JOGO DA VIDA
TTITLE6=LADO ERRADO
TTITLE7=LEMBRANÇAS DE AMOR
TTITLE8=NADA NORMAL
TTITLE9=SEM TRÂNSITO, SEM AVIÃO
TTITLE10=TEM QUE SER VOCÊ
TTITLE11=TIMIDEZ
TTITLE12=VIDA BOA
TTITLE13=NÃO MAIS
EXTD=
EXTT0=
EXTT1=
EXTT2=
EXTT3=
EXTT4=
EXTT5=
EXTT6=
EXTT7=
EXTT8=
EXTT9=
EXTT10=
EXTT11=
EXTT12=
EXTT13=
PLAYORDER=
